<svg id="Layer_1" data-name="Layer 1" xmlns="http://www.w3.org/2000/svg" viewBox="0 0 800.87 606.25"><defs><style>.cls-1{fill:#231f20;}.cls-2{fill:#ed1c24;}</style></defs><title>first</title><path class="cls-1" d="M89.71,236.93,141.07,96.22H92.38V70.54h78.38V92.21L118.33,235.33h52.43V261H89.71Z"/><path class="cls-1" d="M224,70.54h22.74L289.27,261H262l-8-40.93H216.77l-8,40.93H181.46Zm11.5,54.84H235l-13.38,69h27.29Z"/><path class="cls-1" d="M308.79,70.54H335l35,100.85h.54L405.36,70.54h26.48V261H404.56V145.17H404L377,227H363.36l-26.75-81.86h-.54V261H308.79Z"/><path class="cls-1" d="M463.68,70.54h39.86q13.1,0,22.34,4A42.19,42.19,0,0,1,541,85.25a40.07,40.07,0,0,1,8.43,15.38A64.11,64.11,0,0,1,552,118.69v7a60.73,60.73,0,0,1-1.2,13.11,31.51,31.51,0,0,1-3.61,9.36,30,30,0,0,1-5.89,7.09,51.34,51.34,0,0,1-8,5.75,29.47,29.47,0,0,1,14.18,13.51q4.55,9,4.55,23.94v10.7q0,25.15-12.17,38.52T500.87,261H463.68ZM491,148.65h12.31q13.64,0,18.32-6.82t4.68-19.93q0-12.84-5.22-19.26T502.2,96.22H491Zm0,85.07h11.77q8.29,0,13-2.41a16.62,16.62,0,0,0,7.09-6.69,25.19,25.19,0,0,0,2.94-10.17q.53-5.88.54-12.84a85.88,85.88,0,0,0-.8-12.57,20.7,20.7,0,0,0-3.34-9A15.79,15.79,0,0,0,515,174.6a32.23,32.23,0,0,0-12-1.87H491Z"/><path class="cls-1" d="M584.6,70.54h27.29V261H584.6Z"/><path class="cls-1" d="M674.74,70.54h22.74L740,261H712.73l-8-40.93H667.52l-8,40.93H632.21Zm11.5,54.84h-.54l-13.38,69h27.29Z"/><path class="cls-1" d="M102.26,303.2h6.35v3.36a19.28,19.28,0,0,1,3.8-2.74,9.69,9.69,0,0,1,4.6-1v6.72a5.15,5.15,0,0,0-1.93-.37,7.55,7.55,0,0,0-2.15.34,5.87,5.87,0,0,0-2.12,1.15,6.16,6.16,0,0,0-1.59,2.12,7.51,7.51,0,0,0-.62,3.24v18.73h-6.35Z"/><path class="cls-1" d="M126.77,321.36v4.29a3.05,3.05,0,0,0,.84,2.3,3.14,3.14,0,0,0,2.27.81,2.5,2.5,0,0,0,2.39-1.06,5.7,5.7,0,0,0,.72-2.12h6.35a10.55,10.55,0,0,1-.65,3.73,8.28,8.28,0,0,1-1.9,3,8.94,8.94,0,0,1-3,2.05,10.74,10.74,0,0,1-9-.5,8.36,8.36,0,0,1-4.17-6.16,23.29,23.29,0,0,1-.25-3.55V313.77a23.29,23.29,0,0,1,.25-3.55,8.36,8.36,0,0,1,4.17-6.16,9.78,9.78,0,0,1,5-1.24,10.08,10.08,0,0,1,4,.75,8.35,8.35,0,0,1,3,2.08,9.4,9.4,0,0,1,1.87,3.14,11.26,11.26,0,0,1,.65,3.86v8.71Zm0-5H133v-3.61a3.86,3.86,0,0,0-.84-2.71,3.31,3.31,0,0,0-4.54,0,3.86,3.86,0,0,0-.84,2.71Z"/><path class="cls-1" d="M152.16,325.66A3,3,0,0,0,153,328a3.13,3.13,0,0,0,2.27.81,2.5,2.5,0,0,0,2.39-1.06,5.71,5.71,0,0,0,.72-2.12h6.35a10.55,10.55,0,0,1-.65,3.73,8.28,8.28,0,0,1-1.9,3,9,9,0,0,1-3,2.05,10.74,10.74,0,0,1-9-.5,8.37,8.37,0,0,1-4.17-6.16,23.46,23.46,0,0,1-.25-3.55V313.77a23.46,23.46,0,0,1,.25-3.55,8.37,8.37,0,0,1,4.17-6.16,9.77,9.77,0,0,1,5-1.24,10.08,10.08,0,0,1,4,.75,8.33,8.33,0,0,1,3,2.08,9.25,9.25,0,0,1,1.87,3.2,12.17,12.17,0,0,1,.65,4h-6.35a4.05,4.05,0,0,0-.84-2.83,3.31,3.31,0,0,0-4.54,0,3.85,3.85,0,0,0-.84,2.71Z"/><path class="cls-1" d="M169.33,313.77a23.29,23.29,0,0,1,.25-3.55,8.36,8.36,0,0,1,4.17-6.16,10.83,10.83,0,0,1,10.08,0,8.36,8.36,0,0,1,4.17,6.16,23.46,23.46,0,0,1,.25,3.55v10.39a23.46,23.46,0,0,1-.25,3.55,8.36,8.36,0,0,1-4.17,6.16,10.82,10.82,0,0,1-10.08,0,8.36,8.36,0,0,1-4.17-6.16,23.29,23.29,0,0,1-.25-3.55Zm6.35,11.39a3.85,3.85,0,0,0,.84,2.71,3.31,3.31,0,0,0,4.54,0,3.85,3.85,0,0,0,.84-2.71V312.78a3.86,3.86,0,0,0-.84-2.71,3.31,3.31,0,0,0-4.54,0,3.86,3.86,0,0,0-.84,2.71Z"/><path class="cls-1" d="M194.34,303.2h6.35v3.36a19.28,19.28,0,0,1,3.8-2.74,9.69,9.69,0,0,1,4.6-1v6.72a5.15,5.15,0,0,0-1.93-.37,7.55,7.55,0,0,0-2.15.34,5.87,5.87,0,0,0-2.12,1.15,6.16,6.16,0,0,0-1.59,2.12,7.51,7.51,0,0,0-.62,3.24v18.73h-6.35Z"/><path class="cls-1" d="M225.7,331.88l-1.18,1.28a6.48,6.48,0,0,1-1.24,1,5.88,5.88,0,0,1-1.55.69,7.6,7.6,0,0,1-2.05.25,5.78,5.78,0,0,1-5.54-3,8.43,8.43,0,0,1-.81-2.61,27.5,27.5,0,0,1-.25-4.17v-12a48.53,48.53,0,0,1,.19-5,6.24,6.24,0,0,1,.81-2.61,6.77,6.77,0,0,1,2.08-2.05,6.68,6.68,0,0,1,3.58-.81,6.56,6.56,0,0,1,3.33.84,7.69,7.69,0,0,1,2.52,2.39h.13V290.44H232v44.3H225.7Zm-6.28-7.4a5.75,5.75,0,0,0,.75,3.11,2.59,2.59,0,0,0,2.36,1.18,2.8,2.8,0,0,0,2.3-1.09,4.39,4.39,0,0,0,.87-2.83V312.59a3.46,3.46,0,0,0-.9-2.46,3,3,0,0,0-2.27-1,2.6,2.6,0,0,0-2.46,1.12,5.09,5.09,0,0,0-.65,2.61Z"/><path class="cls-1" d="M244.49,321.36v4.29a3.05,3.05,0,0,0,.84,2.3,3.14,3.14,0,0,0,2.27.81,2.5,2.5,0,0,0,2.39-1.06,5.7,5.7,0,0,0,.72-2.12h6.35a10.55,10.55,0,0,1-.65,3.73,8.28,8.28,0,0,1-1.9,3,8.94,8.94,0,0,1-3,2.05,10.74,10.74,0,0,1-9-.5,8.36,8.36,0,0,1-4.17-6.16,23.29,23.29,0,0,1-.25-3.55V313.77a23.29,23.29,0,0,1,.25-3.55,8.36,8.36,0,0,1,4.17-6.16,9.78,9.78,0,0,1,5-1.24,10.08,10.08,0,0,1,4,.75,8.35,8.35,0,0,1,3,2.08,9.4,9.4,0,0,1,1.87,3.14,11.26,11.26,0,0,1,.65,3.86v8.71Zm0-5h6.22v-3.61a3.86,3.86,0,0,0-.84-2.71,3.31,3.31,0,0,0-4.54,0,3.86,3.86,0,0,0-.84,2.71Z"/><path class="cls-1" d="M275.79,331.88l-1.18,1.28a6.48,6.48,0,0,1-1.24,1,5.88,5.88,0,0,1-1.55.69,7.6,7.6,0,0,1-2.05.25,5.78,5.78,0,0,1-5.54-3,8.43,8.43,0,0,1-.81-2.61,27.5,27.5,0,0,1-.25-4.17v-12a48.53,48.53,0,0,1,.19-5,6.24,6.24,0,0,1,.81-2.61,6.77,6.77,0,0,1,2.08-2.05,6.68,6.68,0,0,1,3.58-.81,6.56,6.56,0,0,1,3.33.84,7.69,7.69,0,0,1,2.52,2.39h.13V290.44h6.35v44.3h-6.35Zm-6.28-7.4a5.75,5.75,0,0,0,.75,3.11,2.59,2.59,0,0,0,2.36,1.18,2.8,2.8,0,0,0,2.3-1.09,4.39,4.39,0,0,0,.87-2.83V312.59a3.46,3.46,0,0,0-.9-2.46,3,3,0,0,0-2.27-1,2.6,2.6,0,0,0-2.46,1.12,5.09,5.09,0,0,0-.65,2.61Z"/><path class="cls-1" d="M301.29,328.77l11.45-21.59a7.88,7.88,0,0,0,1-2.83q.13-1.21.13-3,0-.81-.06-1.71a5.14,5.14,0,0,0-.34-1.59,2.71,2.71,0,0,0-.9-1.15,3,3,0,0,0-1.8-.47,2.86,2.86,0,0,0-3.11,3.17v3.61h-6.35v-3.49A9.38,9.38,0,0,1,302,296a9.91,9.91,0,0,1,2-3,9.71,9.71,0,0,1,3-2.08,9.07,9.07,0,0,1,3.73-.78,9.31,9.31,0,0,1,4.26.9,8.24,8.24,0,0,1,2.93,2.46,10.42,10.42,0,0,1,1.68,3.55,16.46,16.46,0,0,1,.53,4.23q0,1.62-.06,2.71a16.3,16.3,0,0,1-.25,2.08,9.21,9.21,0,0,1-.62,2q-.44,1-1.18,2.43l-9.33,18h11.45v6.35H301.29Z"/><path class="cls-1" d="M325.87,299.59a9.65,9.65,0,0,1,.78-4,9.34,9.34,0,0,1,2.08-3,9,9,0,0,1,3-1.9,10.11,10.11,0,0,1,7.16,0,9,9,0,0,1,3,1.9,9.34,9.34,0,0,1,2.08,3,9.67,9.67,0,0,1,.78,4v26a9.67,9.67,0,0,1-.78,4,9.31,9.31,0,0,1-2.08,3,9,9,0,0,1-3,1.9,10.11,10.11,0,0,1-7.16,0,9,9,0,0,1-3-1.9,9.31,9.31,0,0,1-2.08-3,9.65,9.65,0,0,1-.78-4Zm6.35,26a3.13,3.13,0,0,0,.87,2.27,3.23,3.23,0,0,0,4.48,0,3.13,3.13,0,0,0,.87-2.27v-26a3.14,3.14,0,0,0-.87-2.27,3.23,3.23,0,0,0-4.48,0,3.14,3.14,0,0,0-.87,2.27Z"/><path class="cls-1" d="M350.95,328.39h6.35v6.35l-6.35,4.6Z"/><path class="cls-1" d="M363.45,302q0-1.8.12-3.08a11.69,11.69,0,0,1,.41-2.21,7.71,7.71,0,0,1,.72-1.68,14.54,14.54,0,0,1,1.06-1.56,8.57,8.57,0,0,1,3.11-2.52,9.51,9.51,0,0,1,8.09,0,8.58,8.58,0,0,1,3.11,2.52,14.94,14.94,0,0,1,1.06,1.56,7.78,7.78,0,0,1,.72,1.68,11.8,11.8,0,0,1,.4,2.21q.13,1.28.13,3.08,0,2-.06,3.36a10.29,10.29,0,0,1-.37,2.43,5.66,5.66,0,0,1-1,1.9,11.81,11.81,0,0,1-1.77,1.77,9.44,9.44,0,0,1,1.77,1.74,5.89,5.89,0,0,1,1,2.05,13.51,13.51,0,0,1,.37,2.89q.06,1.71.06,4.2,0,2.05-.09,3.39a20.22,20.22,0,0,1-.28,2.33,6.39,6.39,0,0,1-.53,1.68,13.54,13.54,0,0,1-.84,1.43,9.38,9.38,0,0,1-15.43,0,13.34,13.34,0,0,1-.84-1.43,6.44,6.44,0,0,1-.53-1.68,20.82,20.82,0,0,1-.28-2.33q-.09-1.34-.09-3.39,0-2.49.06-4.2a13.42,13.42,0,0,1,.37-2.89,5.89,5.89,0,0,1,1-2.05,9.48,9.48,0,0,1,1.77-1.74,11.87,11.87,0,0,1-1.77-1.77,5.66,5.66,0,0,1-1-1.9,10.22,10.22,0,0,1-.37-2.43Q363.45,304,363.45,302ZM376,299.52a3,3,0,0,0-.93-2.21,3.08,3.08,0,0,0-4.36,0,3,3,0,0,0-.93,2.21V306a3,3,0,0,0,.93,2.21,3.08,3.08,0,0,0,4.36,0A3,3,0,0,0,376,306Zm0,17.42a3,3,0,0,0-.93-2.21,3.08,3.08,0,0,0-4.36,0,3,3,0,0,0-.93,2.21v8.71a3,3,0,0,0,.93,2.21,3.08,3.08,0,0,0,4.36,0,3,3,0,0,0,.93-2.21Z"/><path class="cls-1" d="M395.55,309.11a8,8,0,0,0,4-.68q1.09-.68,1.09-3.17v-5.73a3.09,3.09,0,0,0-.84-2.24,3,3,0,0,0-2.27-.87,2.68,2.68,0,0,0-2.39,1.06,3.67,3.67,0,0,0-.72,2.05v3.61H388v-3.67a9.23,9.23,0,0,1,.75-3.67,8.92,8.92,0,0,1,2.05-3,10.18,10.18,0,0,1,3-2,9.37,9.37,0,0,1,3.73-.75,8.3,8.3,0,0,1,4.32,1,10,10,0,0,1,2.58,2.08,12.34,12.34,0,0,1,1.09,1.52,7.15,7.15,0,0,1,.75,1.8,16,16,0,0,1,.44,2.49,34.89,34.89,0,0,1,.16,3.58q0,2.3-.09,3.73a7.46,7.46,0,0,1-.5,2.4,4.46,4.46,0,0,1-1.18,1.65,14.34,14.34,0,0,1-2.15,1.49,12.07,12.07,0,0,1,2.27,1.74,5.08,5.08,0,0,1,1.15,1.9,9.28,9.28,0,0,1,.44,2.61q.06,1.52.06,3.89,0,2.18-.09,3.61a19.33,19.33,0,0,1-.28,2.4,7.36,7.36,0,0,1-.5,1.65,10.31,10.31,0,0,1-.81,1.43,10,10,0,0,1-3,2.89,9,9,0,0,1-4.79,1.15,11.18,11.18,0,0,1-3.17-.5,8.63,8.63,0,0,1-3-1.62,8.76,8.76,0,0,1-2.27-2.93,9.8,9.8,0,0,1-.9-4.42V322h6.35v3.3a3.6,3.6,0,0,0,.84,2.46,3.15,3.15,0,0,0,4.54,0,3.79,3.79,0,0,0,.84-2.58v-6.35a8.41,8.41,0,0,0-.22-2.12,2.44,2.44,0,0,0-.78-1.28,3.11,3.11,0,0,0-1.52-.62,16.37,16.37,0,0,0-2.52-.16Z"/><path class="cls-1" d="M422.12,316.14,422,316a2.47,2.47,0,0,1-1,.4,7.59,7.59,0,0,1-1.71.16,6.22,6.22,0,0,1-3.11-.81,6.3,6.3,0,0,1-2.24-2.05,5.39,5.39,0,0,1-.68-1.34,9.68,9.68,0,0,1-.4-1.83q-.16-1.12-.22-2.83t-.06-4.32q0-2.18.06-3.58a21,21,0,0,1,.22-2.36,7.56,7.56,0,0,1,.44-1.65,11.43,11.43,0,0,1,.72-1.43,8.57,8.57,0,0,1,3.33-3.17,9.76,9.76,0,0,1,4.7-1.12,9.38,9.38,0,0,1,4.67,1.15,9,9,0,0,1,3.3,3.14q.43.75.75,1.43a6.55,6.55,0,0,1,.47,1.65,21.33,21.33,0,0,1,.22,2.36q.06,1.4.06,3.58t-.06,3.39a21,21,0,0,1-.22,2.3,16.11,16.11,0,0,1-.37,1.74q-.22.78-.53,1.65L422,334.74h-7.09ZM419,307.8a3,3,0,0,0,.93,2.3,3.16,3.16,0,0,0,4.36,0,3,3,0,0,0,.93-2.3v-8.21a3,3,0,0,0-.93-2.3,3.16,3.16,0,0,0-4.36,0,3,3,0,0,0-.93,2.3Z"/><path class="cls-1" d="M456.47,321.36v4.29a3.05,3.05,0,0,0,.84,2.3,3.14,3.14,0,0,0,2.27.81,2.5,2.5,0,0,0,2.39-1.06,5.7,5.7,0,0,0,.72-2.12H469a10.55,10.55,0,0,1-.65,3.73,8.28,8.28,0,0,1-1.9,3,8.94,8.94,0,0,1-3,2.05,10.74,10.74,0,0,1-9-.5,8.36,8.36,0,0,1-4.17-6.16,23.29,23.29,0,0,1-.25-3.55V313.77a23.29,23.29,0,0,1,.25-3.55,8.36,8.36,0,0,1,4.17-6.16,9.78,9.78,0,0,1,5-1.24,10.08,10.08,0,0,1,4,.75,8.35,8.35,0,0,1,3,2.08,9.4,9.4,0,0,1,1.87,3.14,11.26,11.26,0,0,1,.65,3.86v8.71Zm0-5h6.22v-3.61a3.86,3.86,0,0,0-.84-2.71,3.31,3.31,0,0,0-4.54,0,3.86,3.86,0,0,0-.84,2.71Z"/><path class="cls-1" d="M474.76,290.44h6.35v35.4a3.49,3.49,0,0,0,.65,2.46,4.11,4.11,0,0,0,2.46.84v6a21,21,0,0,1-4-.34,6.77,6.77,0,0,1-3-1.31,6.08,6.08,0,0,1-1.87-2.71,12.92,12.92,0,0,1-.65-4.48Z"/><path class="cls-1" d="M493.92,321.36v4.29a3.05,3.05,0,0,0,.84,2.3,3.14,3.14,0,0,0,2.27.81,2.5,2.5,0,0,0,2.39-1.06,5.7,5.7,0,0,0,.72-2.12h6.35a10.55,10.55,0,0,1-.65,3.73,8.28,8.28,0,0,1-1.9,3,8.94,8.94,0,0,1-3,2.05,10.74,10.74,0,0,1-9-.5,8.36,8.36,0,0,1-4.17-6.16,23.29,23.29,0,0,1-.25-3.55V313.77a23.29,23.29,0,0,1,.25-3.55,8.36,8.36,0,0,1,4.17-6.16,9.78,9.78,0,0,1,5-1.24,10.08,10.08,0,0,1,4,.75,8.35,8.35,0,0,1,3,2.08,9.4,9.4,0,0,1,1.87,3.14,11.26,11.26,0,0,1,.65,3.86v8.71Zm0-5h6.22v-3.61a3.86,3.86,0,0,0-.84-2.71,3.31,3.31,0,0,0-4.54,0,3.86,3.86,0,0,0-.84,2.71Z"/><path class="cls-1" d="M512.59,303.2h6.35v2.86a15.6,15.6,0,0,1,2.43-2.3,5.94,5.94,0,0,1,3.61-.93,5.77,5.77,0,0,1,5.54,3,8.5,8.5,0,0,1,.81,2.61,27.66,27.66,0,0,1,.25,4.17v12a48.38,48.38,0,0,1-.19,5,6.26,6.26,0,0,1-.81,2.61,6.8,6.8,0,0,1-2.08,2.05,6.69,6.69,0,0,1-3.58.81,6.56,6.56,0,0,1-3.33-.84,7.68,7.68,0,0,1-2.52-2.4h-.12V347.5h-6.35Zm12.63,10.27a5.76,5.76,0,0,0-.75-3.11,2.59,2.59,0,0,0-2.36-1.18,2.8,2.8,0,0,0-2.3,1.09,4.39,4.39,0,0,0-.87,2.83v12.26a3.45,3.45,0,0,0,.9,2.46,3,3,0,0,0,2.27,1,2.6,2.6,0,0,0,2.46-1.12,5.08,5.08,0,0,0,.65-2.61Z"/><path class="cls-1" d="M538.22,290.44h6.35v15.8h.12a9,9,0,0,1,2.4-2.46,6.17,6.17,0,0,1,3.58-1,7.3,7.3,0,0,1,2.36.4,5.5,5.5,0,0,1,2.12,1.34,6.77,6.77,0,0,1,1.49,2.4,10.06,10.06,0,0,1,.56,3.58v24.2h-6.35V312.9a4.23,4.23,0,0,0-.81-2.74,2.8,2.8,0,0,0-2.3-1,2.68,2.68,0,0,0-2.49,1.12,6.25,6.25,0,0,0-.68,3.24v21.22h-6.35Z"/><path class="cls-1" d="M575.86,331.5h-.12a11.72,11.72,0,0,1-2.52,2.67,6,6,0,0,1-3.58.93,8.31,8.31,0,0,1-2.3-.34,5.75,5.75,0,0,1-2.21-1.24,6.51,6.51,0,0,1-1.68-2.55,11.73,11.73,0,0,1-.65-4.26,22.49,22.49,0,0,1,.44-4.7,7.43,7.43,0,0,1,1.59-3.36,6.86,6.86,0,0,1,3.08-2,15.58,15.58,0,0,1,4.91-.65q.68,0,1.37.06l1.68.12v-3.3a4.84,4.84,0,0,0-.68-2.67,2.74,2.74,0,0,0-2.49-1.06,3.58,3.58,0,0,0-2.27.81,3.84,3.84,0,0,0-1.34,2.36h-6.16a10.36,10.36,0,0,1,2.86-6.84,9,9,0,0,1,3-2,10.26,10.26,0,0,1,3.92-.72,11,11,0,0,1,3.73.62,8.24,8.24,0,0,1,3,1.87,8.9,8.9,0,0,1,2,3.11,11.68,11.68,0,0,1,.75,4.36v22h-6.35Zm0-10.33a10.36,10.36,0,0,0-1.74-.19,6.24,6.24,0,0,0-3.52,1q-1.46,1-1.46,3.52a4.62,4.62,0,0,0,.87,2.92,2.9,2.9,0,0,0,2.43,1.12,3.13,3.13,0,0,0,2.52-1.06,4.47,4.47,0,0,0,.9-3Z"/><path class="cls-1" d="M588.31,303.2h6.35v3h.12a9,9,0,0,1,2.4-2.46,6.17,6.17,0,0,1,3.58-1,7.3,7.3,0,0,1,2.36.4,5.5,5.5,0,0,1,2.12,1.34,6.77,6.77,0,0,1,1.49,2.4,10.06,10.06,0,0,1,.56,3.58v24.2h-6.35V312.9a4.23,4.23,0,0,0-.81-2.74,2.8,2.8,0,0,0-2.3-1,2.68,2.68,0,0,0-2.49,1.12,6.25,6.25,0,0,0-.68,3.24v21.22h-6.35Z"/><path class="cls-1" d="M613.94,293.61h6.35v9.58h3.92v5h-3.92v17.48a5.46,5.46,0,0,0,.22,1.74,1.78,1.78,0,0,0,.68.93,2.52,2.52,0,0,0,1.21.37q.75.06,1.8.06v6h-2.61a8.57,8.57,0,0,1-3.64-.68,6.55,6.55,0,0,1-2.33-1.74,6.83,6.83,0,0,1-1.28-2.4,8.9,8.9,0,0,1-.4-2.58V308.17h-3.17v-5h3.17Z"/><path class="cls-1" d="M639.58,312a3.16,3.16,0,0,0-1-2.43,3.35,3.35,0,0,0-2.21-.81,2.83,2.83,0,0,0-2.3,1,3.34,3.34,0,0,0-.81,2.21,3.66,3.66,0,0,0,.44,1.71,4,4,0,0,0,2.24,1.52l3.73,1.49a9.06,9.06,0,0,1,4.88,3.73,10.31,10.31,0,0,1,1.34,5.16,9.51,9.51,0,0,1-.72,3.7,9.86,9.86,0,0,1-2,3,8.94,8.94,0,0,1-3,2.05,9.52,9.52,0,0,1-3.8.75,10.14,10.14,0,0,1-3.55-.62,8.78,8.78,0,0,1-3-1.8,9.12,9.12,0,0,1-2.08-3,10.55,10.55,0,0,1-.87-4.14h6a6,6,0,0,0,.9,2.43,2.75,2.75,0,0,0,2.52,1.12,3.75,3.75,0,0,0,2.46-.9,3.09,3.09,0,0,0,1.09-2.52,3.69,3.69,0,0,0-.68-2.24,5.41,5.41,0,0,0-2.49-1.62l-3-1.12a10.37,10.37,0,0,1-4.7-3.33,8.52,8.52,0,0,1-1.71-5.38,9.16,9.16,0,0,1,.75-3.7,8.89,8.89,0,0,1,2-2.92,9.42,9.42,0,0,1,6.56-2.58,8.92,8.92,0,0,1,3.58.72,8.58,8.58,0,0,1,4.7,4.85,9.72,9.72,0,0,1,.69,3.64Z"/><path class="cls-1" d="M651.4,328.39h6.35v6.35l-6.35,4.6Z"/><path class="cls-1" d="M689.41,331.5h-.12a11.72,11.72,0,0,1-2.52,2.67,6,6,0,0,1-3.58.93,8.31,8.31,0,0,1-2.3-.34,5.75,5.75,0,0,1-2.21-1.24A6.51,6.51,0,0,1,677,331a11.73,11.73,0,0,1-.65-4.26,22.49,22.49,0,0,1,.44-4.7,7.43,7.43,0,0,1,1.59-3.36,6.86,6.86,0,0,1,3.08-2,15.58,15.58,0,0,1,4.91-.65q.68,0,1.37.06l1.68.12v-3.3a4.84,4.84,0,0,0-.68-2.67,2.74,2.74,0,0,0-2.49-1.06A3.58,3.58,0,0,0,684,310a3.84,3.84,0,0,0-1.34,2.36h-6.16a10.36,10.36,0,0,1,2.86-6.84,9,9,0,0,1,3-2,10.26,10.26,0,0,1,3.92-.72,11,11,0,0,1,3.73.62,8.24,8.24,0,0,1,3,1.87,8.9,8.9,0,0,1,2,3.11,11.68,11.68,0,0,1,.75,4.36v22h-6.35Zm0-10.33a10.36,10.36,0,0,0-1.74-.19,6.24,6.24,0,0,0-3.52,1q-1.46,1-1.46,3.52a4.62,4.62,0,0,0,.87,2.92,2.9,2.9,0,0,0,2.43,1.12,3.13,3.13,0,0,0,2.52-1.06,4.47,4.47,0,0,0,.9-3Z"/><path class="cls-1" d="M701.86,303.2h6.35v3h.12a9,9,0,0,1,2.4-2.46,6.17,6.17,0,0,1,3.58-1,7.3,7.3,0,0,1,2.36.4,5.5,5.5,0,0,1,2.12,1.34,6.77,6.77,0,0,1,1.49,2.4,10.06,10.06,0,0,1,.56,3.58v24.2h-6.35V312.9a4.23,4.23,0,0,0-.81-2.74,2.8,2.8,0,0,0-2.3-1,2.68,2.68,0,0,0-2.49,1.12,6.25,6.25,0,0,0-.68,3.24v21.22h-6.35Z"/><path class="cls-1" d="M109.29,378.54l-6.35,4.67v-6.72l6.35-4.67h6.35v44.3h-6.35Z"/><path class="cls-1" d="M133.86,378.54l-6.35,4.67v-6.72l6.35-4.67h6.35v44.3h-6.35Z"/><path class="cls-1" d="M164.41,384.58h6.35v2.86a15.6,15.6,0,0,1,2.43-2.3,5.94,5.94,0,0,1,3.61-.93,5.77,5.77,0,0,1,5.54,3,8.5,8.5,0,0,1,.81,2.61,27.66,27.66,0,0,1,.25,4.17v12a48.38,48.38,0,0,1-.19,5,6.26,6.26,0,0,1-.81,2.61,6.8,6.8,0,0,1-2.08,2.05,6.69,6.69,0,0,1-3.58.81,6.56,6.56,0,0,1-3.33-.84,7.68,7.68,0,0,1-2.52-2.4h-.12v15.62h-6.35ZM177,394.85a5.76,5.76,0,0,0-.75-3.11,2.59,2.59,0,0,0-2.36-1.18,2.8,2.8,0,0,0-2.3,1.09,4.39,4.39,0,0,0-.87,2.83v12.26a3.45,3.45,0,0,0,.9,2.46,3,3,0,0,0,2.27,1,2.6,2.6,0,0,0,2.46-1.12,5.08,5.08,0,0,0,.65-2.61Z"/><path class="cls-1" d="M195.83,402.75V407a3.05,3.05,0,0,0,.84,2.3,3.14,3.14,0,0,0,2.27.81,2.5,2.5,0,0,0,2.39-1.06,5.7,5.7,0,0,0,.72-2.12h6.35a10.55,10.55,0,0,1-.65,3.73,8.28,8.28,0,0,1-1.9,3,8.94,8.94,0,0,1-3,2.05,10.74,10.74,0,0,1-9-.5,8.36,8.36,0,0,1-4.17-6.16,23.29,23.29,0,0,1-.25-3.55V395.16a23.29,23.29,0,0,1,.25-3.55,8.36,8.36,0,0,1,4.17-6.16,9.78,9.78,0,0,1,5-1.24,10.08,10.08,0,0,1,4,.75,8.35,8.35,0,0,1,3,2.08,9.4,9.4,0,0,1,1.87,3.14,11.26,11.26,0,0,1,.65,3.86v8.71Zm0-5h6.22v-3.61a3.86,3.86,0,0,0-.84-2.71,3.31,3.31,0,0,0-4.54,0,3.86,3.86,0,0,0-.84,2.71Z"/><path class="cls-1" d="M214.5,384.58h6.35v3.36a19.28,19.28,0,0,1,3.8-2.74,9.69,9.69,0,0,1,4.6-1v6.72a5.15,5.15,0,0,0-1.93-.37,7.55,7.55,0,0,0-2.15.34,5.87,5.87,0,0,0-2.12,1.15,6.16,6.16,0,0,0-1.59,2.12,7.51,7.51,0,0,0-.62,3.24v18.73H214.5Z"/><path class="cls-1" d="M239.2,407a3,3,0,0,0,.84,2.3,3.13,3.13,0,0,0,2.27.81,2.5,2.5,0,0,0,2.39-1.06,5.71,5.71,0,0,0,.72-2.12h6.35a10.55,10.55,0,0,1-.65,3.73,8.28,8.28,0,0,1-1.9,3,9,9,0,0,1-3,2.05,10.74,10.74,0,0,1-9-.5,8.37,8.37,0,0,1-4.17-6.16,23.46,23.46,0,0,1-.25-3.55V395.16a23.46,23.46,0,0,1,.25-3.55,8.37,8.37,0,0,1,4.17-6.16,9.77,9.77,0,0,1,5-1.24,10.08,10.08,0,0,1,4,.75,8.33,8.33,0,0,1,3,2.08,9.25,9.25,0,0,1,1.87,3.2,12.17,12.17,0,0,1,.65,4h-6.35a4.05,4.05,0,0,0-.84-2.83,3.31,3.31,0,0,0-4.54,0,3.85,3.85,0,0,0-.84,2.71Z"/><path class="cls-1" d="M262.72,402.75V407a3.05,3.05,0,0,0,.84,2.3,3.14,3.14,0,0,0,2.27.81,2.5,2.5,0,0,0,2.39-1.06,5.7,5.7,0,0,0,.72-2.12h6.35a10.55,10.55,0,0,1-.65,3.73,8.28,8.28,0,0,1-1.9,3,8.94,8.94,0,0,1-3,2.05,10.74,10.74,0,0,1-9-.5,8.36,8.36,0,0,1-4.17-6.16,23.29,23.29,0,0,1-.25-3.55V395.16a23.29,23.29,0,0,1,.25-3.55,8.36,8.36,0,0,1,4.17-6.16,9.78,9.78,0,0,1,5-1.24,10.08,10.08,0,0,1,4,.75,8.35,8.35,0,0,1,3,2.08,9.4,9.4,0,0,1,1.87,3.14,11.26,11.26,0,0,1,.65,3.86v8.71Zm0-5h6.22v-3.61a3.86,3.86,0,0,0-.84-2.71,3.31,3.31,0,0,0-4.54,0,3.86,3.86,0,0,0-.84,2.71Z"/><path class="cls-1" d="M281.38,384.58h6.35v3h.12a9,9,0,0,1,2.4-2.46,6.17,6.17,0,0,1,3.58-1,7.3,7.3,0,0,1,2.36.4,5.5,5.5,0,0,1,2.12,1.34,6.77,6.77,0,0,1,1.49,2.4,10.06,10.06,0,0,1,.56,3.58v24.2H294V394.29a4.23,4.23,0,0,0-.81-2.74,2.8,2.8,0,0,0-2.3-1,2.68,2.68,0,0,0-2.49,1.12,6.25,6.25,0,0,0-.68,3.24v21.22h-6.35Z"/><path class="cls-1" d="M307,375h6.35v9.58h3.92v5h-3.92V407a5.46,5.46,0,0,0,.22,1.74,1.78,1.78,0,0,0,.68.93,2.52,2.52,0,0,0,1.21.37q.75.06,1.8.06v6h-2.61a8.57,8.57,0,0,1-3.64-.68,6.55,6.55,0,0,1-2.33-1.74,6.83,6.83,0,0,1-1.28-2.4,8.9,8.9,0,0,1-.4-2.58V389.56h-3.17v-5H307Z"/><path class="cls-1" d="M346.78,413.26l-1.18,1.28a6.48,6.48,0,0,1-1.24,1,5.88,5.88,0,0,1-1.55.69,7.6,7.6,0,0,1-2.05.25,5.78,5.78,0,0,1-5.54-3,8.43,8.43,0,0,1-.81-2.61,27.5,27.5,0,0,1-.25-4.17v-12a48.53,48.53,0,0,1,.19-5,6.24,6.24,0,0,1,.81-2.61,6.77,6.77,0,0,1,2.08-2.05,6.68,6.68,0,0,1,3.58-.81,6.56,6.56,0,0,1,3.33.84,7.69,7.69,0,0,1,2.52,2.39h.13V371.83h6.35v44.3h-6.35Zm-6.28-7.4a5.75,5.75,0,0,0,.75,3.11,2.59,2.59,0,0,0,2.36,1.18,2.8,2.8,0,0,0,2.3-1.09,4.39,4.39,0,0,0,.87-2.83V394a3.46,3.46,0,0,0-.9-2.46,3,3,0,0,0-2.27-1,2.6,2.6,0,0,0-2.46,1.12,5.09,5.09,0,0,0-.65,2.61Z"/><path class="cls-1" d="M365.57,402.75V407a3.05,3.05,0,0,0,.84,2.3,3.14,3.14,0,0,0,2.27.81,2.5,2.5,0,0,0,2.39-1.06,5.7,5.7,0,0,0,.72-2.12h6.35a10.55,10.55,0,0,1-.65,3.73,8.28,8.28,0,0,1-1.9,3,8.94,8.94,0,0,1-3,2.05,10.74,10.74,0,0,1-9-.5,8.36,8.36,0,0,1-4.17-6.16,23.29,23.29,0,0,1-.25-3.55V395.16a23.29,23.29,0,0,1,.25-3.55,8.36,8.36,0,0,1,4.17-6.16,9.78,9.78,0,0,1,5-1.24,10.08,10.08,0,0,1,4,.75,8.35,8.35,0,0,1,3,2.08,9.4,9.4,0,0,1,1.87,3.14,11.26,11.26,0,0,1,.65,3.86v8.71Zm0-5h6.22v-3.61a3.86,3.86,0,0,0-.84-2.71,3.31,3.31,0,0,0-4.54,0,3.86,3.86,0,0,0-.84,2.71Z"/><path class="cls-1" d="M391,407a3,3,0,0,0,.84,2.3,3.13,3.13,0,0,0,2.27.81,2.5,2.5,0,0,0,2.39-1.06,5.71,5.71,0,0,0,.72-2.12h6.35a10.55,10.55,0,0,1-.65,3.73,8.28,8.28,0,0,1-1.9,3,9,9,0,0,1-3,2.05,10.74,10.74,0,0,1-9-.5,8.37,8.37,0,0,1-4.17-6.16,23.46,23.46,0,0,1-.25-3.55V395.16a23.46,23.46,0,0,1,.25-3.55,8.37,8.37,0,0,1,4.17-6.16,9.77,9.77,0,0,1,5-1.24,10.08,10.08,0,0,1,4,.75,8.33,8.33,0,0,1,3,2.08,9.25,9.25,0,0,1,1.87,3.2,12.17,12.17,0,0,1,.65,4h-6.35a4.05,4.05,0,0,0-.84-2.83,3.31,3.31,0,0,0-4.54,0,3.85,3.85,0,0,0-.84,2.71Z"/><path class="cls-1" d="M407.56,371.83h6.35v35.4a3.49,3.49,0,0,0,.65,2.46,4.11,4.11,0,0,0,2.46.84v6a21,21,0,0,1-4-.34,6.77,6.77,0,0,1-3-1.31,6.08,6.08,0,0,1-1.87-2.71,12.92,12.92,0,0,1-.65-4.48Z"/><path class="cls-1" d="M420.94,371.83h6.35v6.35h-6.35Zm0,12.76h6.35v31.54h-6.35Z"/><path class="cls-1" d="M433.94,384.58h6.35v3h.12a9,9,0,0,1,2.4-2.46,6.17,6.17,0,0,1,3.58-1,7.3,7.3,0,0,1,2.36.4,5.5,5.5,0,0,1,2.12,1.34,6.77,6.77,0,0,1,1.49,2.4,10.06,10.06,0,0,1,.56,3.58v24.2h-6.35V394.29a4.23,4.23,0,0,0-.81-2.74,2.8,2.8,0,0,0-2.3-1,2.68,2.68,0,0,0-2.49,1.12,6.25,6.25,0,0,0-.68,3.24v21.22h-6.35Z"/><path class="cls-1" d="M465.36,402.75V407a3.05,3.05,0,0,0,.84,2.3,3.14,3.14,0,0,0,2.27.81,2.5,2.5,0,0,0,2.39-1.06,5.7,5.7,0,0,0,.72-2.12h6.35a10.55,10.55,0,0,1-.65,3.73,8.28,8.28,0,0,1-1.9,3,8.94,8.94,0,0,1-3,2.05,10.74,10.74,0,0,1-9-.5,8.36,8.36,0,0,1-4.17-6.16,23.29,23.29,0,0,1-.25-3.55V395.16a23.29,23.29,0,0,1,.25-3.55,8.36,8.36,0,0,1,4.17-6.16,9.78,9.78,0,0,1,5-1.24,10.08,10.08,0,0,1,4,.75,8.35,8.35,0,0,1,3,2.08,9.4,9.4,0,0,1,1.87,3.14,11.26,11.26,0,0,1,.65,3.86v8.71Zm0-5h6.22v-3.61a3.86,3.86,0,0,0-.84-2.71,3.31,3.31,0,0,0-4.54,0,3.86,3.86,0,0,0-.84,2.71Z"/><path class="cls-1" d="M509.66,413.26l-1.18,1.28a6.48,6.48,0,0,1-1.24,1,5.88,5.88,0,0,1-1.55.69,7.6,7.6,0,0,1-2.05.25,5.78,5.78,0,0,1-5.54-3,8.43,8.43,0,0,1-.81-2.61,27.5,27.5,0,0,1-.25-4.17v-12a48.53,48.53,0,0,1,.19-5,6.24,6.24,0,0,1,.81-2.61,6.77,6.77,0,0,1,2.08-2.05,6.68,6.68,0,0,1,3.58-.81A6.56,6.56,0,0,1,507,385a7.69,7.69,0,0,1,2.52,2.39h.13V371.83H516v44.3h-6.35Zm-6.28-7.4a5.75,5.75,0,0,0,.75,3.11,2.59,2.59,0,0,0,2.36,1.18,2.8,2.8,0,0,0,2.3-1.09,4.39,4.39,0,0,0,.87-2.83V394a3.46,3.46,0,0,0-.9-2.46,3,3,0,0,0-2.27-1,2.6,2.6,0,0,0-2.46,1.12,5.09,5.09,0,0,0-.65,2.61Z"/><path class="cls-1" d="M541.64,416.13H535.3v-3h-.13a9,9,0,0,1-2.39,2.46,6.17,6.17,0,0,1-3.58,1,7.27,7.27,0,0,1-2.36-.41,5.46,5.46,0,0,1-2.11-1.34,6.73,6.73,0,0,1-1.49-2.39,10.06,10.06,0,0,1-.56-3.58v-24.2H529v21.84a4.22,4.22,0,0,0,.81,2.74,2.8,2.8,0,0,0,2.3,1,2.68,2.68,0,0,0,2.49-1.12,6.26,6.26,0,0,0,.69-3.24V384.58h6.35Z"/><path class="cls-1" d="M548.3,384.58h6.35v3.36a19.28,19.28,0,0,1,3.8-2.74,9.69,9.69,0,0,1,4.6-1v6.72a5.15,5.15,0,0,0-1.93-.37,7.55,7.55,0,0,0-2.15.34,5.87,5.87,0,0,0-2.12,1.15,6.16,6.16,0,0,0-1.59,2.12,7.51,7.51,0,0,0-.62,3.24v18.73H548.3Z"/><path class="cls-1" d="M567,371.83h6.35v6.35H567Zm0,12.76h6.35v31.54H567Z"/><path class="cls-1" d="M580,384.58h6.35v3h.12a9,9,0,0,1,2.4-2.46,6.17,6.17,0,0,1,3.58-1,7.3,7.3,0,0,1,2.36.4,5.5,5.5,0,0,1,2.12,1.34,6.77,6.77,0,0,1,1.49,2.4,10.06,10.06,0,0,1,.56,3.58v24.2h-6.35V394.29a4.23,4.23,0,0,0-.81-2.74,2.8,2.8,0,0,0-2.3-1,2.68,2.68,0,0,0-2.49,1.12,6.25,6.25,0,0,0-.68,3.24v21.22H580Z"/><path class="cls-1" d="M612,419.8a3.54,3.54,0,0,0,.9,2.12,3,3,0,0,0,2.46,1,2.56,2.56,0,0,0,2.24-1,4.15,4.15,0,0,0,.69-2.46v-6.22h-.13a7.68,7.68,0,0,1-2.52,2.4,6.68,6.68,0,0,1-3.39.84,5.78,5.78,0,0,1-5.54-3,8.43,8.43,0,0,1-.81-2.61,27.5,27.5,0,0,1-.25-4.17v-12a48.53,48.53,0,0,1,.19-5,6.24,6.24,0,0,1,.81-2.61,6.77,6.77,0,0,1,2.08-2.05,6.68,6.68,0,0,1,3.58-.81,7.19,7.19,0,0,1,2,.25,6.05,6.05,0,0,1,1.52.68,6.62,6.62,0,0,1,1.24,1l1.18,1.28v-2.86h6.35V420a10.68,10.68,0,0,1-.53,3.27,8.34,8.34,0,0,1-1.71,3,9,9,0,0,1-3,2.18,10.09,10.09,0,0,1-4.29.84,10.37,10.37,0,0,1-3-.47,8.36,8.36,0,0,1-2.89-1.56,9.32,9.32,0,0,1-2.3-2.89,12.66,12.66,0,0,1-1.28-4.54Zm0-13.38a5.1,5.1,0,0,0,.65,2.61,2.6,2.6,0,0,0,2.46,1.12,3,3,0,0,0,2.27-1,3.46,3.46,0,0,0,.9-2.46V394.47a4.39,4.39,0,0,0-.87-2.83,2.8,2.8,0,0,0-2.3-1.09,2.59,2.59,0,0,0-2.36,1.18,5.76,5.76,0,0,0-.75,3.11Z"/><path class="cls-1" d="M644.3,375h6.35v9.58h3.92v5h-3.92V407a5.46,5.46,0,0,0,.22,1.74,1.78,1.78,0,0,0,.68.93,2.52,2.52,0,0,0,1.21.37q.75.06,1.8.06v6H652a8.57,8.57,0,0,1-3.64-.68A6.55,6.55,0,0,1,646,413.7a6.83,6.83,0,0,1-1.28-2.4,8.9,8.9,0,0,1-.4-2.58V389.56h-3.17v-5h3.17Z"/><path class="cls-1" d="M658.43,371.83h6.35v15.8h.12a9,9,0,0,1,2.4-2.46,6.17,6.17,0,0,1,3.58-1,7.3,7.3,0,0,1,2.36.4,5.5,5.5,0,0,1,2.12,1.34,6.77,6.77,0,0,1,1.49,2.4,10.06,10.06,0,0,1,.56,3.58v24.2h-6.35V394.29a4.23,4.23,0,0,0-.81-2.74,2.8,2.8,0,0,0-2.3-1,2.68,2.68,0,0,0-2.49,1.12,6.25,6.25,0,0,0-.68,3.24v21.22h-6.35Z"/><path class="cls-1" d="M689.85,402.75V407a3.05,3.05,0,0,0,.84,2.3,3.14,3.14,0,0,0,2.27.81,2.5,2.5,0,0,0,2.39-1.06,5.7,5.7,0,0,0,.72-2.12h6.35a10.55,10.55,0,0,1-.65,3.73,8.28,8.28,0,0,1-1.9,3,8.94,8.94,0,0,1-3,2.05,10.74,10.74,0,0,1-9-.5,8.36,8.36,0,0,1-4.17-6.16,23.29,23.29,0,0,1-.25-3.55V395.16a23.29,23.29,0,0,1,.25-3.55,8.36,8.36,0,0,1,4.17-6.16,9.78,9.78,0,0,1,5-1.24,10.08,10.08,0,0,1,4,.75,8.35,8.35,0,0,1,3,2.08,9.4,9.4,0,0,1,1.87,3.14,11.26,11.26,0,0,1,.65,3.86v8.71Zm0-5h6.22v-3.61a3.86,3.86,0,0,0-.84-2.71,3.31,3.31,0,0,0-4.54,0,3.86,3.86,0,0,0-.84,2.71Z"/><path class="cls-2" d="M167.37,476.76H179.8v5.61a30.49,30.49,0,0,1,4.75-4.51Q187,476,191.62,476q7.68,0,10.85,5.85A16.57,16.57,0,0,1,204,487a54.31,54.31,0,0,1,.49,8.16v23.52a95.29,95.29,0,0,1-.37,9.87,12.29,12.29,0,0,1-1.58,5.12,13.28,13.28,0,0,1-4.08,4,13.08,13.08,0,0,1-7,1.58,12.85,12.85,0,0,1-6.52-1.64,15,15,0,0,1-4.94-4.69h-.24v30.59H167.37Zm24.74,20.11a11.28,11.28,0,0,0-1.46-6.09,5.08,5.08,0,0,0-4.63-2.32,5.49,5.49,0,0,0-4.51,2.13,8.61,8.61,0,0,0-1.71,5.55v24a6.76,6.76,0,0,0,1.77,4.81,5.82,5.82,0,0,0,4.45,1.89q3.53,0,4.81-2.19a10,10,0,0,0,1.28-5.12Z"/><path class="cls-2" d="M241.09,532.21h-.24a22.93,22.93,0,0,1-4.94,5.24,11.69,11.69,0,0,1-7,1.83,16.21,16.21,0,0,1-4.51-.67,11.25,11.25,0,0,1-4.33-2.44,12.75,12.75,0,0,1-3.29-5,23,23,0,0,1-1.28-8.35,44,44,0,0,1,.85-9.2,14.58,14.58,0,0,1,3.11-6.58,13.42,13.42,0,0,1,6-3.9,30.49,30.49,0,0,1,9.63-1.28c.89,0,1.79,0,2.68.12s2,.16,3.29.24v-6.46a9.48,9.48,0,0,0-1.34-5.24q-1.34-2.07-4.87-2.07a7,7,0,0,0-4.45,1.58,7.52,7.52,0,0,0-2.62,4.63H215.75q.61-8.41,5.61-13.4a17.63,17.63,0,0,1,5.85-3.84,20.06,20.06,0,0,1,7.68-1.4,21.64,21.64,0,0,1,7.31,1.22,16.15,16.15,0,0,1,5.91,3.66,17.42,17.42,0,0,1,4,6.09,22.87,22.87,0,0,1,1.46,8.53v43H241.09Zm0-20.23a20.41,20.41,0,0,0-3.41-.36,12.22,12.22,0,0,0-6.88,1.89q-2.87,1.89-2.86,6.88a9.06,9.06,0,0,0,1.71,5.73,5.68,5.68,0,0,0,4.75,2.19,6.14,6.14,0,0,0,4.94-2.07,8.75,8.75,0,0,0,1.77-5.85Z"/><path class="cls-2" d="M288,494.07a6.19,6.19,0,0,0-2-4.75,6.55,6.55,0,0,0-4.33-1.58,5.56,5.56,0,0,0-4.51,1.89,6.54,6.54,0,0,0-1.58,4.33,7.19,7.19,0,0,0,.85,3.35q.85,1.65,4.39,3l7.31,2.92q6.95,2.68,9.57,7.31a20.2,20.2,0,0,1,2.62,10.11,18.61,18.61,0,0,1-1.4,7.25,19.26,19.26,0,0,1-3.84,5.91,17.49,17.49,0,0,1-5.85,4,18.68,18.68,0,0,1-7.43,1.46,19.88,19.88,0,0,1-6.95-1.22,17.18,17.18,0,0,1-5.79-3.53,17.87,17.87,0,0,1-4.08-5.79,20.66,20.66,0,0,1-1.71-8.1H275a11.83,11.83,0,0,0,1.77,4.75q1.4,2.19,4.93,2.19a7.34,7.34,0,0,0,4.81-1.77,6.06,6.06,0,0,0,2.13-4.94,7.22,7.22,0,0,0-1.34-4.39,10.57,10.57,0,0,0-4.87-3.17l-6-2.19a20.34,20.34,0,0,1-9.2-6.52,16.69,16.69,0,0,1-3.35-10.54,17.94,17.94,0,0,1,1.46-7.25,17.4,17.4,0,0,1,4-5.73,18.37,18.37,0,0,1,5.79-3.72,18.57,18.57,0,0,1,7.07-1.34,17.44,17.44,0,0,1,7,1.4,16.8,16.8,0,0,1,9.2,9.5,19.05,19.05,0,0,1,1.34,7.13Z"/><path class="cls-2" d="M311.16,458h12.43v18.77h7.68v9.75h-7.68v34.24a10.7,10.7,0,0,0,.43,3.41,3.49,3.49,0,0,0,1.34,1.83,5,5,0,0,0,2.38.73q1.46.12,3.53.12v11.7h-5.12A16.76,16.76,0,0,1,319,537.2a12.82,12.82,0,0,1-4.57-3.41,13.35,13.35,0,0,1-2.5-4.69,17.4,17.4,0,0,1-.79-5.06V486.51h-6.22v-9.75h6.22Z"/><path class="cls-2" d="M389,532.94q-1.22,1.34-2.32,2.5a12.77,12.77,0,0,1-2.44,2,11.48,11.48,0,0,1-3,1.34,14.82,14.82,0,0,1-4,.49q-7.68,0-10.85-5.85a16.47,16.47,0,0,1-1.58-5.12,53.93,53.93,0,0,1-.49-8.16V496.63a95.33,95.33,0,0,1,.37-9.87,12.27,12.27,0,0,1,1.58-5.12,13.3,13.3,0,0,1,4.08-4,13.07,13.07,0,0,1,7-1.58,12.85,12.85,0,0,1,6.52,1.65,15.08,15.08,0,0,1,4.94,4.69H389V451.78h12.43v86.77H389Zm-12.31-14.5a11.27,11.27,0,0,0,1.46,6.09,5.07,5.07,0,0,0,4.63,2.32,5.49,5.49,0,0,0,4.51-2.13,8.6,8.6,0,0,0,1.71-5.54v-24a6.77,6.77,0,0,0-1.77-4.81,5.84,5.84,0,0,0-4.45-1.89q-3.54,0-4.81,2.19a10,10,0,0,0-1.28,5.12Z"/><path class="cls-2" d="M425.83,512.34v8.41a6,6,0,0,0,1.64,4.51,6.14,6.14,0,0,0,4.45,1.58q3.53,0,4.69-2.07a11.16,11.16,0,0,0,1.4-4.14h12.43a20.65,20.65,0,0,1-1.28,7.31,16.18,16.18,0,0,1-3.72,5.85,17.49,17.49,0,0,1-5.85,4,19.32,19.32,0,0,1-7.68,1.46,19.11,19.11,0,0,1-9.87-2.44,16.39,16.39,0,0,1-8.16-12.07,45.72,45.72,0,0,1-.49-6.95V497.48a45.75,45.75,0,0,1,.49-6.95,16.39,16.39,0,0,1,8.16-12.06,19.12,19.12,0,0,1,9.87-2.44,19.74,19.74,0,0,1,7.74,1.46,16.33,16.33,0,0,1,5.85,4.08,18.34,18.34,0,0,1,3.66,6.15,22,22,0,0,1,1.28,7.56v17.06Zm0-9.75H438v-7.07a7.54,7.54,0,0,0-1.64-5.3,6.48,6.48,0,0,0-8.9,0,7.54,7.54,0,0,0-1.64,5.3Z"/><path class="cls-2" d="M475.55,520.75a6,6,0,0,0,1.64,4.51,6.14,6.14,0,0,0,4.45,1.58q3.53,0,4.69-2.07a11.16,11.16,0,0,0,1.4-4.14h12.43a20.65,20.65,0,0,1-1.28,7.31,16.18,16.18,0,0,1-3.72,5.85,17.49,17.49,0,0,1-5.85,4,19.32,19.32,0,0,1-7.68,1.46,19.11,19.11,0,0,1-9.87-2.44,16.39,16.39,0,0,1-8.16-12.07,45.72,45.72,0,0,1-.49-6.95V497.48a45.75,45.75,0,0,1,.49-6.95,16.39,16.39,0,0,1,8.16-12.06,19.12,19.12,0,0,1,9.87-2.44,19.74,19.74,0,0,1,7.74,1.46,16.33,16.33,0,0,1,5.85,4.08,18.12,18.12,0,0,1,3.66,6.28,23.82,23.82,0,0,1,1.28,7.92H487.74q0-3.78-1.64-5.55a6.48,6.48,0,0,0-8.9,0,7.54,7.54,0,0,0-1.64,5.3Z"/><path class="cls-2" d="M533.8,532.21h-.24a22.93,22.93,0,0,1-4.94,5.24,11.69,11.69,0,0,1-7,1.83,16.21,16.21,0,0,1-4.51-.67,11.25,11.25,0,0,1-4.33-2.44,12.75,12.75,0,0,1-3.29-5,23,23,0,0,1-1.28-8.35,44,44,0,0,1,.85-9.2,14.58,14.58,0,0,1,3.11-6.58,13.42,13.42,0,0,1,6-3.9,30.49,30.49,0,0,1,9.63-1.28c.89,0,1.79,0,2.68.12s2,.16,3.29.24v-6.46a9.48,9.48,0,0,0-1.34-5.24q-1.34-2.07-4.87-2.07a7,7,0,0,0-4.45,1.58,7.52,7.52,0,0,0-2.62,4.63H508.45q.61-8.41,5.61-13.4a17.63,17.63,0,0,1,5.85-3.84,20.06,20.06,0,0,1,7.68-1.4,21.64,21.64,0,0,1,7.31,1.22,16.15,16.15,0,0,1,5.91,3.66,17.42,17.42,0,0,1,4,6.09,22.87,22.87,0,0,1,1.46,8.53v43H533.8Zm0-20.23a20.41,20.41,0,0,0-3.41-.36,12.22,12.22,0,0,0-6.88,1.89q-2.87,1.89-2.86,6.88a9.06,9.06,0,0,0,1.71,5.73,5.68,5.68,0,0,0,4.75,2.19,6.14,6.14,0,0,0,4.94-2.07,8.75,8.75,0,0,0,1.77-5.85Z"/><path class="cls-2" d="M582.91,532.94q-1.22,1.34-2.32,2.5a12.77,12.77,0,0,1-2.44,2,11.48,11.48,0,0,1-3,1.34,14.82,14.82,0,0,1-4,.49q-7.68,0-10.85-5.85a16.47,16.47,0,0,1-1.58-5.12,53.93,53.93,0,0,1-.49-8.16V496.63a95.33,95.33,0,0,1,.37-9.87,12.27,12.27,0,0,1,1.58-5.12,13.3,13.3,0,0,1,4.08-4,13.07,13.07,0,0,1,7-1.58,12.85,12.85,0,0,1,6.52,1.65,15.08,15.08,0,0,1,4.94,4.69h.24V451.78h12.43v86.77H582.91Zm-12.31-14.5a11.27,11.27,0,0,0,1.46,6.09,5.07,5.07,0,0,0,4.63,2.32,5.49,5.49,0,0,0,4.51-2.13,8.6,8.6,0,0,0,1.71-5.54v-24a6.77,6.77,0,0,0-1.77-4.81,5.84,5.84,0,0,0-4.45-1.89q-3.54,0-4.81,2.19a10,10,0,0,0-1.28,5.12Z"/><path class="cls-2" d="M619.71,512.34v8.41a6,6,0,0,0,1.64,4.51,6.14,6.14,0,0,0,4.45,1.58q3.53,0,4.69-2.07a11.16,11.16,0,0,0,1.4-4.14h12.43a20.65,20.65,0,0,1-1.28,7.31,16.18,16.18,0,0,1-3.72,5.85,17.49,17.49,0,0,1-5.85,4,19.32,19.32,0,0,1-7.68,1.46,19.11,19.11,0,0,1-9.87-2.44,16.39,16.39,0,0,1-8.16-12.07,45.72,45.72,0,0,1-.49-6.95V497.48a45.75,45.75,0,0,1,.49-6.95,16.39,16.39,0,0,1,8.16-12.06A19.12,19.12,0,0,1,625.8,476a19.74,19.74,0,0,1,7.74,1.46,16.33,16.33,0,0,1,5.85,4.08,18.34,18.34,0,0,1,3.66,6.15,22,22,0,0,1,1.28,7.56v17.06Zm0-9.75H631.9v-7.07a7.54,7.54,0,0,0-1.64-5.3,6.48,6.48,0,0,0-8.9,0,7.54,7.54,0,0,0-1.64,5.3Z"/></svg>