<svg id="Layer_1" data-name="Layer 1" xmlns="http://www.w3.org/2000/svg" viewBox="0 0 1024 846.3"><defs><style>.cls-1{fill:#ed1c24;}</style></defs><title>ivorymap</title><path class="cls-1" d="M412.15,75c10.38,0,20.59,1.79,30.17,7.25,11.05,6.3,19.18,16.57,28.76,24.93a102.24,102.24,0,0,0,56.26,24.36c3,.31,5.2.49,6.91.49,6.31,0,5.84-2.34,11.76-8.78,5.29-5.75,11.81-9.47,19.8-9.47h.56c17.86.39,31.12,15.13,48.74,17a35.5,35.5,0,0,0,3.81.2c13.37,0,27.44-6.82,40.67-6.82a28,28,0,0,1,18.58,6.46c10.11,8.32,10.91,27.14-.69,33.21.22,19.41,18.73,32.81,28.86,49.37a61.83,61.83,0,0,1,9,30.06c.1,3,.06,6.18,1.87,8.52,1.56,2,4.15,2.91,6.08,4.57,4.55,3.89,4.57,10.77,6.74,16.35,5.35,13.73,22.92,18.06,32,29.68,5.49,7,7.5,16.33,13.12,23.26,3.81,4.7,8,6.3,12.29,6.3,5.63,0,11.57-2.7,17.47-4.78a127.46,127.46,0,0,1,42.25-7.22h1c-.67,33.39-22.77,62.4-46.78,85.64l-.25.24c-27.17,26.25-76.44,54.83-67.2,98.4,3.48,16.39,11.63,31.5,15.11,47.89s.89,36-12.75,45.71c-10.59,7.56-25.94,7.84-34.31,17.81-6.49,7.73-6.59,18.75-7.45,28.8A142.17,142.17,0,0,1,552.75,774.49c-1.36,0-2.73,0-4.09-.06-5.72-.17-11.75-.81-16.35-4.21-7.56-5.61-8.49-16.29-11.48-25.21-7.25-21.65-29.39-37.19-31.93-59.87-1-8.94,1.26-18.13-.63-26.93C485,643,470.46,632.77,465,618.24c-7.66-20.43,4.29-42.37,8.27-63.83a88.36,88.36,0,0,0-12.13-62.79c-7.88-12.41-19.06-23.22-22.86-37.43-3.44-12.86-.25-26.65-2.65-39.75a48.19,48.19,0,0,0-31.32-36.23,54.94,54.94,0,0,0-17.74-2.75c-15.65,0-31.76,5.36-47.28,9.24a201.56,201.56,0,0,1-48.6,6.32,143,143,0,0,1-46.24-7.27c-30.34-10.34-57.12-33.91-66.26-64.64-2.15-7.23-3.31-15-1.6-22.31s6.14-13.76,8.23-21c3.44-11.85.32-24.45-.35-36.77a93.19,93.19,0,0,1,35.07-77.11c8.65-6.76,18.67-12.11,25.41-20.78,7.68-9.88,10.25-23,18.2-32.71,11.43-13.9,30.94-17.42,48.75-20,22.35-3.25,44.87-6,67.11-9.69C389.92,77,401.13,75,412.15,75m0-7c-10.7,0-21.34,1.76-31.62,3.46l-2.64.44c-14.39,2.36-29.17,4.4-43.48,6.37-7.71,1.06-15.68,2.16-23.51,3.3-19.92,2.9-40.44,7-53.15,22.49-4.67,5.68-7.57,12.09-10.37,18.29-2.42,5.36-4.71,10.41-7.94,14.57-4.09,5.27-9.86,9.3-16,13.57-2.71,1.9-5.52,3.86-8.23,6a100,100,0,0,0-37.75,83c.19,3.54.57,7.06.94,10.47.92,8.57,1.79,16.67-.32,24a63.28,63.28,0,0,1-3.54,8.69,64.73,64.73,0,0,0-4.79,12.66c-1.77,7.6-1.21,16.07,1.71,25.89,4.71,15.84,14.07,30.72,27.07,43a120.1,120.1,0,0,0,43.64,26.22,150.09,150.09,0,0,0,48.5,7.64A208.33,208.33,0,0,0,341,391.5c3.19-.8,6.44-1.67,9.59-2.51,12-3.21,24.42-6.53,36-6.53a47.71,47.71,0,0,1,15.5,2.38,41.3,41.3,0,0,1,26.67,30.86c1,5.32.91,10.95.84,16.9-.09,7.61-.18,15.49,1.93,23.4,3,11.07,9.58,19.92,16,28.49,2.78,3.72,5.4,7.23,7.72,10.88a81.24,81.24,0,0,1,11.15,57.76c-1.09,5.87-2.81,11.78-4.64,18-4.71,16.14-9.57,32.84-3.31,49.53,2.82,7.51,7.51,13.69,12,19.67,4.88,6.43,9.48,12.49,10.94,19.3.87,4,.65,8.5.42,13.23a80.61,80.61,0,0,0,.09,13c1.63,14.59,10,26.07,18,37.16,5.86,8.07,11.39,15.69,14.23,24.16.65,1.94,1.21,4,1.79,6.23,2.08,7.81,4.44,16.66,12.15,22.38,6.17,4.57,13.73,5.39,20.31,5.59,1.42,0,2.87.06,4.3.06A149.17,149.17,0,0,0,701.55,645c.1-1.14.19-2.28.27-3.44.64-8.39,1.25-16.31,5.57-21.46,3.59-4.27,9.68-6.43,16.12-8.72,5.7-2,11.59-4.11,16.89-7.89,7.7-5.5,13.07-14,15.54-24.46a66.62,66.62,0,0,0,0-28.4c-1.84-8.69-4.89-16.95-7.84-24.92s-5.64-15.27-7.27-23c-2.89-13.64.46-26.41,10.56-40.2,9.32-12.74,22.78-24.1,35.79-35.08,6.79-5.74,13.21-11.16,18.88-16.63l.26-.25c32.31-31.28,48.31-60.89,48.9-90.52a7,7,0,0,0-6.94-7.14h-1.1a133.89,133.89,0,0,0-44.58,7.62c-1.16.41-2.32.84-3.48,1.27-4.3,1.6-8.36,3.11-11.66,3.11-2,0-4.22-.45-6.86-3.71-2.32-2.86-4-6.51-5.81-10.37a63.33,63.33,0,0,0-7.23-12.79c-4.54-5.81-10.45-9.79-16.18-13.64-6.72-4.52-12.52-8.42-14.8-14.27a40.4,40.4,0,0,1-1.37-4.75c-1.13-4.58-2.54-10.28-7.35-14.38a26.22,26.22,0,0,0-3.38-2.37,13.27,13.27,0,0,1-1.7-1.15,14.57,14.57,0,0,1-.4-3.83l0-.64a68.62,68.62,0,0,0-10-33.48,143.52,143.52,0,0,0-12-16.06c-7.17-8.69-14-17-15.5-26.2a24.16,24.16,0,0,0,8-16.11c1-9.83-3-20-10.19-26a34.83,34.83,0,0,0-23-8.05c-7.46,0-14.81,1.83-21.92,3.6C631,122.41,624.76,124,618.92,124a28.64,28.64,0,0,1-3.06-.16c-7.06-.76-13.65-4.15-20.63-7.73-8.7-4.47-17.7-9.1-28.71-9.33h-.72c-9.4,0-17.79,3.94-25,11.72-1.77,1.93-3.05,3.55-4,4.74-.49.62-1.07,1.36-1.41,1.72a9.55,9.55,0,0,1-1.21.06c-1.32,0-3.23-.14-6.18-.45a95.31,95.31,0,0,1-52.39-22.68c-3-2.6-5.79-5.38-8.78-8.33-6.33-6.25-12.88-12.72-21.12-17.41C436.14,70.62,425.14,68,412.15,68Z"/></svg>