<svg id="Layer_1" data-name="Layer 1" xmlns="http://www.w3.org/2000/svg" viewBox="0 0 1024 846.3"><defs><style>.cls-1{fill:none;stroke:#ed1c24;stroke-miterlimit:10;stroke-width:5px;}</style></defs><title>text</title><path class="cls-1" d="M206.36,156.91h33.92v236.8H206.36Z"/><path class="cls-1" d="M347.37,393.71H317.44l-48.22-236.8h35.92l26.94,165.3h.67L360,156.91h35.92Z"/><path class="cls-1" d="M421.87,212.79q0-14.3,5-25.28A52.71,52.71,0,0,1,440,169.38a56.66,56.66,0,0,1,18.29-10.81,59,59,0,0,1,40.91,0,56.78,56.78,0,0,1,18.29,10.81,52.79,52.79,0,0,1,13.14,18.13q5,11,5,25.28V337.84q0,14.64-5,25.44a53.12,53.12,0,0,1-13.14,18,56.58,56.58,0,0,1-18.29,10.81,59,59,0,0,1-40.91,0A56.46,56.46,0,0,1,440,381.24a53,53,0,0,1-13.14-18q-5-10.8-5-25.44Zm33.92,125.05q0,12.31,6.82,18.13a25.26,25.26,0,0,0,32.26,0q6.81-5.82,6.82-18.13V212.79q0-12.3-6.82-18.13a25.26,25.26,0,0,0-32.26,0q-6.82,5.82-6.82,18.13Z"/><path class="cls-1" d="M573.2,156.91h54.54q59.87,0,59.87,69.51,0,20.63-6.49,35.42t-22.78,23.78l36.58,108.09H659l-31.6-101.11H607.12V393.71H573.2Zm33.92,105.76h19.29q9,0,14.3-2.49a18.38,18.38,0,0,0,8.15-7.15,30.47,30.47,0,0,0,3.82-11.47,125.53,125.53,0,0,0,0-31.6,28.54,28.54,0,0,0-4.16-11.64,18.85,18.85,0,0,0-8.81-7.15q-5.66-2.32-15-2.33H607.12Z"/><path class="cls-1" d="M748.14,293.61,701.58,156.91H737.5L764.77,251h.67l27.27-94.12h35.92L782.06,293.61V393.71H748.14Z"/><path class="cls-1" d="M227.64,486.51H188.4V454.58H300.81v31.93H261.57V691.38H227.64Z"/><path class="cls-1" d="M315.77,454.58h54.54q59.86,0,59.86,69.51,0,20.63-6.49,35.42t-22.78,23.78L437.5,691.38H401.58L370,590.27H349.7V691.38H315.77ZM349.7,560.34H369q9,0,14.3-2.49a18.38,18.38,0,0,0,8.15-7.15,30.48,30.48,0,0,0,3.82-11.47,125.53,125.53,0,0,0,0-31.6A28.54,28.54,0,0,0,391.1,496a18.85,18.85,0,0,0-8.81-7.15q-5.66-2.32-15-2.33H349.7Z"/><path class="cls-1" d="M495,454.58h28.27l52.88,236.8H542.26l-10-50.89H486.06l-10,50.89H442.15Zm14.3,68.18h-.67L492,608.57H526Z"/><path class="cls-1" d="M592.82,454.58H643q28.94,0,44.23,16.13t15.3,45.07V626.52q0,33.26-16.13,49.06T640,691.38H592.82Zm33.92,204.87h15.63q14.3,0,20.29-7.15t6-22.45V515.77q0-14-5.65-21.62t-20.62-7.65H626.74Z"/><path class="cls-1" d="M734.5,454.58H835.6v31.93H768.42V556H827v31.93H768.42v69.51H835.6v33.92H734.5Z"/></svg>